<?xml version="1.0" standalone="no"?>
<!DOCTYPE svg PUBLIC "-//W3C//DTD SVG 20010904//EN"
 "http://www.w3.org/TR/2001/REC-SVG-20010904/DTD/svg10.dtd">
<svg version="1.0" xmlns="http://www.w3.org/2000/svg"
 width="33.000000pt" height="438.000000pt" viewBox="0 0 33.000000 438.000000"
 preserveAspectRatio="xMidYMid meet">

<g transform="translate(0.000000,438.000000) scale(0.100000,-0.100000)"
fill="#000000" stroke="none">
<path d="M0 2190 l0 -2190 165 0 165 0 0 2190 0 2190 -165 0 -165 0 0 -2190z
m215 2117 c51 -43 43 -171 -11 -196 -40 -18 -80 -13 -111 13 -25 22 -28 30
-28 91 0 61 3 69 28 91 37 31 87 32 122 1z m-5 -542 l0 -115 -35 0 -35 0 0 75
0 76 -30 -16 c-38 -20 -40 -19 -40 8 0 15 11 28 34 41 19 10 37 25 40 32 3 8
19 14 36 14 l30 0 0 -115z m0 -345 c55 -29 45 -90 -23 -140 l-41 -30 52 0 c49
0 52 -2 52 -25 0 -25 0 -25 -95 -25 -118 0 -121 9 -34 92 61 59 72 89 36 96
-12 3 -20 -4 -24 -18 -4 -17 -12 -20 -37 -18 -25 2 -30 7 -28 23 7 46 90 73
142 45z m10 -460 c23 -23 25 -39 7 -65 -12 -15 -11 -21 5 -37 44 -44 -1 -108
-77 -108 -36 0 -51 6 -72 26 -21 21 -23 28 -12 35 22 14 51 10 64 -8 17 -23
47 -10 43 19 -2 15 -11 24 -25 26 -28 4 -29 17 -3 39 23 20 27 53 5 53 -7 0
-18 -8 -23 -17 -8 -14 -16 -15 -43 -7 l-34 10 27 27 c35 35 107 38 138 7z m10
-500 c0 -56 3 -70 15 -70 9 0 15 -9 15 -25 0 -16 -6 -25 -15 -25 -8 0 -15 -9
-15 -20 0 -16 -7 -20 -30 -20 -23 0 -30 4 -30 20 0 18 -7 20 -55 20 -54 0 -55
0 -55 29 0 22 16 48 56 95 45 54 61 66 85 66 l29 0 0 -70z m10 -405 c0 -23 -3
-25 -49 -25 -31 0 -51 -5 -54 -13 -3 -9 4 -12 29 -9 25 3 39 -2 58 -22 58 -57
12 -136 -80 -136 -37 0 -91 41 -79 60 9 15 46 12 66 -6 26 -23 49 -11 49 26 0
34 -19 47 -45 32 -9 -5 -28 -7 -42 -4 -23 4 -24 7 -18 56 4 28 9 54 12 59 2 4
38 7 79 7 72 0 74 -1 74 -25z m-20 -443 c41 -33 -4 -58 -50 -29 -17 10 -22 9
-30 -3 -19 -29 -11 -39 25 -33 72 12 113 -70 60 -122 -28 -29 -88 -34 -122
-10 -50 35 -54 145 -8 191 30 30 92 33 125 6z m30 -448 c0 -8 -11 -30 -25 -48
-28 -37 -55 -107 -55 -142 0 -21 -5 -24 -35 -24 -33 0 -34 1 -29 33 3 17 18
58 34 90 l29 57 -55 0 c-51 0 -54 1 -54 25 0 25 0 25 95 25 80 0 95 -3 95 -16z
m-32 -450 c24 -16 29 -53 10 -72 -9 -9 -8 -16 5 -30 43 -47 -2 -112 -78 -112
-76 0 -121 65 -78 112 13 14 14 21 5 30 -19 19 -14 56 10 72 12 9 41 16 63 16
22 0 51 -7 63 -16z m-3 -458 c46 -46 42 -156 -8 -191 -29 -21 -90 -19 -117 3
-41 33 4 58 50 30 17 -11 22 -10 30 2 19 29 11 39 -25 33 -72 -12 -113 70 -60
122 33 34 96 35 130 1z"/>
<path d="M134 4277 c-3 -8 -4 -41 -2 -73 3 -51 6 -59 23 -59 18 0 20 7 20 70
0 58 -3 70 -18 73 -9 2 -20 -3 -23 -11z"/>
<path d="M143 2430 c-29 -36 -29 -40 2 -40 22 0 25 4 25 35 0 19 -1 35 -2 34
-2 0 -13 -13 -25 -29z"/>
<path d="M134 1496 c-10 -26 1 -51 23 -54 14 -2 23 3 28 18 12 37 -38 71 -51
36z"/>
<path d="M135 680 c-4 -7 -3 -16 3 -22 14 -14 45 -2 40 15 -6 16 -34 21 -43 7z"/>
<path d="M134 596 c-10 -26 0 -51 21 -51 16 0 20 7 20 30 0 33 -30 49 -41 21z"/>
<path d="M125 219 c-9 -26 16 -55 40 -45 25 9 16 60 -12 64 -15 2 -23 -3 -28
-19z"/>
</g>
</svg>
